# xmcd
#
# Track frame offsets: 
#        205
#        19915
#        38487
#
# Disc length: 932 seconds
#
# Revision: 0
# Processed by: cddbd v1.5.2PL0 Copyright (c) Steve Scherf et al.
# Submitted via: ExactAudioCopy v1.3
#
DISCID=1803a203
DTITLE=After 7 - Heat Of The Moment (Promo CDS1)
DYEAR=1989
DGENRE=Funk
TTITLE0=Heat Of The Moment (Radio Heat)
TTITLE1=Heat Of The Moment (Percuss-A-Pella)
TTITLE2=Heat Of The Moment (Extended Heat)
EXTD=
EXTT0=
EXTT1=
EXTT2=
PLAYORDER=
